<svg xmlns="http://www.w3.org/2000/svg" viewBox="0 0 104.44 52.14"><defs><style>.cls-1,.cls-2{fill:#27b7e4;}.cls-1{fill-rule:evenodd;}.cls-2{font-size:24.84px;font-family:HelveticaNeueLTCom-Bd, HelveticaNeueLTCom Bd;}</style></defs><g id="Layer_2" data-name="Layer 2"><g id="Layer_1-2" data-name="Layer 1"><path class="cls-1" d="M83.29,41.5c-9.42,7-23.08,10.64-34.84,10.64A63,63,0,0,1,5.9,35.91c-.88-.8-.1-1.88,1-1.27a85.7,85.7,0,0,0,42.58,11.3A84.89,84.89,0,0,0,81.92,39.3C83.51,38.62,84.85,40.35,83.29,41.5Z"/><path class="cls-1" d="M87.21,37c-1.2-1.54-8-.73-11-.37-.92.11-1.06-.69-.23-1.27,5.39-3.79,14.22-2.7,15.25-1.43S91,44.09,85.91,48.32c-.78.65-1.52.3-1.18-.56C85.87,44.92,88.42,38.56,87.21,37Z"/><text class="cls-2" transform="translate(0 20.79)">associates</text></g></g></svg>