<svg xmlns="http://www.w3.org/2000/svg" viewBox="0 0 91.28 63.28"><defs><style>.cls-1{fill:#27b7e4;}</style></defs><g id="Layer_2" data-name="Layer 2"><g id="Layer_1-2" data-name="Layer 1"><path class="cls-1" d="M68.94,63.28a11.51,11.51,0,1,1,11.5-11.51A11.52,11.52,0,0,1,68.94,63.28Zm0-17.26a5.76,5.76,0,1,0,5.75,5.75A5.76,5.76,0,0,0,68.94,46Z"/><path class="cls-1" d="M29.63,63.28a11.51,11.51,0,1,1,11.5-11.51A11.52,11.52,0,0,1,29.63,63.28Zm0-17.26a5.76,5.76,0,1,0,5.75,5.75A5.76,5.76,0,0,0,29.63,46Z"/><path class="cls-1" d="M80.17,27.08,72.34,11.51H59V5.75H74.11a2.87,2.87,0,0,1,2.57,1.59L85.31,24.5Z"/><rect class="cls-1" x="38.54" y="48.99" width="21.76" height="5.75"/><path class="cls-1" d="M21,54.75H11A2.88,2.88,0,0,1,11,49H21a2.88,2.88,0,0,1,0,5.76Z"/><path class="cls-1" d="M88.4,54.75H77.57a2.88,2.88,0,1,1,0-5.76h8V34.16l-4.19-5.4H59a2.87,2.87,0,0,1-2.88-2.87V5.75H11A2.88,2.88,0,1,1,11,0H59a2.88,2.88,0,0,1,2.87,2.88V23h20.9A2.87,2.87,0,0,1,85,24.12l5.66,7.29a2.89,2.89,0,0,1,.61,1.76v18.7A2.88,2.88,0,0,1,88.4,54.75Z"/><path class="cls-1" d="M20.81,40.17H7.57a2.88,2.88,0,0,1,0-5.75H20.81a2.88,2.88,0,0,1,0,5.75Z"/><path class="cls-1" d="M27.42,28.86H2.88a2.88,2.88,0,1,1,0-5.75H27.42a2.88,2.88,0,1,1,0,5.75Z"/><path class="cls-1" d="M32.12,17.55H7.57a2.88,2.88,0,0,1,0-5.76H32.12a2.88,2.88,0,1,1,0,5.76Z"/></g></g></svg>