<svg xmlns="http://www.w3.org/2000/svg" viewBox="0 0 86.04 65.85"><defs><style>.cls-1,.cls-2{fill:#27b7e4;}.cls-1{fill-rule:evenodd;}.cls-2{font-size:49.41px;font-family:HelveticaNeueLTCom-Bd, HelveticaNeueLTCom Bd;}</style></defs><g id="Layer_2" data-name="Layer 2"><g id="Layer_1-2" data-name="Layer 1"><path class="cls-1" d="M77.77,55.2C68.35,62.15,54.7,65.85,42.94,65.85A63,63,0,0,1,.38,49.62c-.88-.8-.09-1.89,1-1.27a85.64,85.64,0,0,0,42.58,11.3A84.67,84.67,0,0,0,76.4,53C78,52.33,79.33,54.05,77.77,55.2Z"/><path class="cls-1" d="M81.69,50.73c-1.2-1.55-8-.74-11-.37-.92.11-1.06-.69-.23-1.28,5.39-3.78,14.23-2.69,15.25-1.42S85.44,57.79,80.39,62c-.78.65-1.52.31-1.17-.55C80.35,58.63,82.9,52.27,81.69,50.73Z"/><text class="cls-2" transform="translate(10.52 41.35)">fba</text></g></g></svg>