<svg xmlns="http://www.w3.org/2000/svg" viewBox="0 0 86.04 60.26"><defs><style>.cls-1,.cls-2{fill:#27b7e4;}.cls-1{fill-rule:evenodd;}.cls-2{font-size:40.54px;font-family:HelveticaNeueLTCom-Bd, HelveticaNeueLTCom Bd;}</style></defs><g id="Layer_2" data-name="Layer 2"><g id="Layer_1-2" data-name="Layer 1"><path class="cls-1" d="M77.77,49.62c-9.42,7-23.07,10.64-34.83,10.64A63,63,0,0,1,.38,44c-.88-.8-.09-1.88,1-1.27a85.64,85.64,0,0,0,42.58,11.3A84.84,84.84,0,0,0,76.4,47.42C78,46.74,79.33,48.46,77.77,49.62Z"/><path class="cls-1" d="M81.69,45.14c-1.2-1.54-8-.73-11-.37-.92.11-1.06-.69-.23-1.27,5.39-3.79,14.23-2.7,15.25-1.43s-.27,10.14-5.32,14.37c-.78.65-1.52.3-1.17-.56C80.35,53,82.9,46.68,81.69,45.14Z"/><text class="cls-2" transform="translate(12.34 33.93)">fbm</text></g></g></svg>