<svg xmlns="http://www.w3.org/2000/svg" viewBox="0 0 86.04 60.9"><defs><style>.cls-1,.cls-2{fill:#27b7e4;}.cls-1{fill-rule:evenodd;}.cls-2{font-size:41.76px;font-family:HelveticaNeueLTCom-Bd, HelveticaNeueLTCom Bd;}</style></defs><g id="Layer_2" data-name="Layer 2"><g id="Layer_1-2" data-name="Layer 1"><path class="cls-1" d="M77.77,50.25C68.35,57.2,54.7,60.9,42.94,60.9A63.05,63.05,0,0,1,.38,44.66c-.88-.79-.09-1.88,1-1.27a85.54,85.54,0,0,0,42.58,11.3A84.65,84.65,0,0,0,76.4,48.05C78,47.37,79.33,49.1,77.77,50.25Z"/><path class="cls-1" d="M81.69,45.77c-1.2-1.54-8-.73-11-.37-.92.11-1.06-.69-.23-1.27,5.39-3.79,14.23-2.69,15.25-1.43s-.27,10.14-5.32,14.37c-.78.65-1.52.3-1.17-.56C80.35,53.67,82.9,47.32,81.69,45.77Z"/><text class="cls-2" transform="translate(13.25 34.95)">kdp</text></g></g></svg>