<svg xmlns="http://www.w3.org/2000/svg" viewBox="0 0 99.82 52.14"><defs><style>.cls-1,.cls-2{fill:#27b7e4;}.cls-1{fill-rule:evenodd;}.cls-2{font-size:24.84px;font-family:HelveticaNeueLTCom-Bd, HelveticaNeueLTCom Bd;}</style></defs><g id="Layer_2" data-name="Layer 2"><g id="Layer_1-2" data-name="Layer 1"><path class="cls-1" d="M81,41.5c-9.42,7-23.08,10.64-34.84,10.64A63,63,0,0,1,3.59,35.91c-.88-.8-.1-1.88,1-1.27a85.7,85.7,0,0,0,42.58,11.3A84.89,84.89,0,0,0,79.61,39.3C81.2,38.62,82.54,40.35,81,41.5Z"/><path class="cls-1" d="M84.9,37c-1.2-1.54-8-.73-11-.37-.92.11-1.06-.69-.23-1.27,5.39-3.79,14.22-2.7,15.25-1.43s-.27,10.14-5.32,14.37c-.78.65-1.52.3-1.18-.56C83.56,44.92,86.11,38.56,84.9,37Z"/><text class="cls-2" transform="translate(0 20.79)">merchant</text></g></g></svg>