<svg xmlns="http://www.w3.org/2000/svg" viewBox="0 0 26.69 31.08"><defs><style>.cls-1{fill:#fff;}</style></defs><g id="Layer_2" data-name="Layer 2"><g id="Layer_1-2" data-name="Layer 1"><path class="cls-1" d="M23.18,25.09a3.51,3.51,0,1,0,0-7H3.51a3.51,3.51,0,0,0,0,7H5.56l-.26.21a1,1,0,0,0-.36,1,1,1,0,0,0,.75.78l.14,0-.68,2.65a.6.6,0,0,0,.44.74l2.06.53.15,0A.65.65,0,0,0,8.11,31a.63.63,0,0,0,.28-.38L9.07,28l.14,0a1,1,0,0,0,1-.32,1,1,0,0,0,.18-1.07L9.8,25.09H23.18Zm-1.83-5.8h1.83a2.29,2.29,0,0,1,0,4.58H21.35ZM6,26.63Zm2.9,0a.68.68,0,0,0-.52.07.71.71,0,0,0-.32.42l-.66,2.57-.88-.22.66-2.58a.69.69,0,0,0-.08-.52.67.67,0,0,0-.42-.31L6.34,26l1.15-.93.75-.62.25.62.68,1.66Zm.45-2.8-.25-.61a.59.59,0,0,0-.41-.36.61.61,0,0,0-.54.11l-1,.86H3.51a2.29,2.29,0,1,1,0-4.58H20.13v4.58Z"/><path class="cls-1" d="M23.53,22.73l.71-.89a.6.6,0,0,0,0-.76l-.71-.89a.61.61,0,0,0-1,.75l.41.52-.41.52a.6.6,0,0,0,.48,1A.6.6,0,0,0,23.53,22.73Z"/><path class="cls-1" d="M4.81,21.35a.54.54,0,0,0,0-.11l-.08-.09-.09-.08L4.48,21l-.11,0a.65.65,0,0,0-.55.17l-.07.09-.06.11a.35.35,0,0,0,0,.11.37.37,0,0,0,0,.24.35.35,0,0,0,0,.11l.06.11.07.09.1.07a.21.21,0,0,0,.1.06.23.23,0,0,0,.11,0l.12,0,.12,0a.2.2,0,0,0,.11,0,.24.24,0,0,0,.11-.06L4.68,22l.08-.09a.54.54,0,0,0,0-.11.36.36,0,0,0,0-.11s0-.08,0-.12,0-.08,0-.12A.36.36,0,0,0,4.81,21.35Z"/><path class="cls-1" d="M8,21.35A.3.3,0,0,0,8,21.24l-.07-.09A.62.62,0,0,0,7.36,21l-.11,0-.11.05-.09.08L7,21.24a.3.3,0,0,0-.06.11.36.36,0,0,0,0,.11s0,.08,0,.12,0,.08,0,.12a.36.36,0,0,0,0,.11.3.3,0,0,0,.06.11l.07.09.09.07a.3.3,0,0,0,.11.06.2.2,0,0,0,.11,0l.12,0,.12,0a.2.2,0,0,0,.11,0,.3.3,0,0,0,.11-.06L7.91,22,8,21.92A.3.3,0,0,0,8,21.81a.36.36,0,0,0,0-.11s0-.08,0-.12,0-.08,0-.12A.36.36,0,0,0,8,21.35Z"/><path class="cls-1" d="M11.27,21.35l-.06-.11-.07-.09a.62.62,0,0,0-.55-.17l-.11,0-.11.05-.09.08-.08.09a.54.54,0,0,0,0,.11.36.36,0,0,0,0,.11s0,.08,0,.12,0,.08,0,.12a.36.36,0,0,0,0,.11.54.54,0,0,0,0,.11l.08.09.09.07a.24.24,0,0,0,.11.06.2.2,0,0,0,.11,0l.12,0,.12,0a.23.23,0,0,0,.11,0,.3.3,0,0,0,.11-.06l.09-.07.07-.09.06-.11a.35.35,0,0,0,0-.11.37.37,0,0,0,0-.24A.35.35,0,0,0,11.27,21.35Z"/><path class="cls-1" d="M17.73,21.35l-.06-.11-.08-.09a.36.36,0,0,0-.09-.08L17.4,21l-.12,0a.89.89,0,0,0-.23,0l-.12,0-.1.05a.36.36,0,0,0-.09.08l-.08.09-.06.11,0,.11a.72.72,0,0,0,0,.24l0,.11.06.11.08.09a.22.22,0,0,0,.09.07.41.41,0,0,0,.22.09l.11,0,.12,0a.41.41,0,0,0,.22-.09.22.22,0,0,0,.09-.07l.08-.09.06-.11,0-.11a.72.72,0,0,0,0-.24Z"/><path class="cls-1" d="M8.06,15.38a8.52,8.52,0,0,0,4.8,1.78h.91a8.48,8.48,0,0,0,4.86-1.82l.05-.05A8.59,8.59,0,1,0,8,15.34Zm9.59-.83a7.35,7.35,0,0,1-3.55,1.37H12.53l-.15,0h0A7.38,7.38,0,0,1,9,14.6V13.5A4.3,4.3,0,0,1,10.86,10a4,4,0,0,0,5,0,4.3,4.3,0,0,1,1.82,3.51v1.05Zm-11.71-6a7.38,7.38,0,1,1,12.92,4.86A5.51,5.51,0,0,0,16.67,9.1a3.95,3.95,0,0,0,.67-2.9.61.61,0,0,0-1.2.18,3,3,0,0,1,0,.42,2.79,2.79,0,0,1-.55,1.68,2.92,2.92,0,0,1-1.08.89,2.88,2.88,0,0,1-2.39,0,3,3,0,0,1-1.09-.89A2.83,2.83,0,0,1,13.34,4,3.39,3.39,0,0,1,14,4a.61.61,0,0,0,.73-.45.61.61,0,0,0-.46-.73,3.91,3.91,0,0,0-.91-.1A4,4,0,0,0,10,9.1a5.51,5.51,0,0,0-2.19,4.4h0A7.36,7.36,0,0,1,5.94,8.59Z"/></g></g></svg>