<svg xmlns="http://www.w3.org/2000/svg" xmlns:xlink="http://www.w3.org/1999/xlink" viewBox="0 0 76 74.97"><defs><style>.cls-1{fill:url(#radial-gradient);}</style><radialGradient id="radial-gradient" cx="-51.56" cy="-28.7" r="197.1" gradientUnits="userSpaceOnUse"><stop offset="0.07" stop-color="#00c9bc"/><stop offset="0.31" stop-color="#1b92a4"/><stop offset="0.64" stop-color="#3d4c85"/><stop offset="0.88" stop-color="#532172"/><stop offset="1" stop-color="#5b106b"/></radialGradient></defs><g id="Layer_2" data-name="Layer 2"><g id="Layer_1-2" data-name="Layer 1"><path class="cls-1" d="M57.29,7.71a2,2,0,1,0,2,2A2,2,0,0,0,57.29,7.71Z"/><path class="cls-1" d="M65.19,7.71a2,2,0,1,0,2,2A2,2,0,0,0,65.19,7.71Z"/><path class="cls-1" d="M49.38,7.71a2,2,0,1,0,2,2A2,2,0,0,0,49.38,7.71Z"/><path class="cls-1" d="M32.8,7.71h-22a2,2,0,0,0,0,3.93h22a2,2,0,1,0,0-3.93Z"/><path class="cls-1" d="M49.43,36.12A1.91,1.91,0,0,0,48,35.67a1.94,1.94,0,0,0-1.34.69L26.32,60.6A2,2,0,0,0,25.87,62a2,2,0,0,0,3.46,1.09L49.67,38.89A2,2,0,0,0,49.43,36.12Z"/><path class="cls-1" d="M45.74,51a5.42,5.42,0,0,0-5.42,5.42v2.82a5.42,5.42,0,0,0,10.84,0V56.41A5.42,5.42,0,0,0,45.74,51Zm1.49,8.24a1.49,1.49,0,0,1-3,0V56.41a1.49,1.49,0,0,1,3,0Z"/><path class="cls-1" d="M30.26,48.49a5.42,5.42,0,0,0,5.42-5.42V40.26a5.42,5.42,0,0,0-10.84,0v2.81A5.42,5.42,0,0,0,30.26,48.49Zm-1.49-8.23a1.49,1.49,0,0,1,3,0v2.81a1.49,1.49,0,0,1-3,0Z"/><path class="cls-1" d="M70.8,0H5.2A5.2,5.2,0,0,0,0,5.2V59.44a5.2,5.2,0,0,0,5.2,5.2H17.82a25.15,25.15,0,0,0,2.59,3,24.88,24.88,0,0,0,35.17,0,24.23,24.23,0,0,0,2.6-3H70.8a5.2,5.2,0,0,0,5.2-5.2V5.2A5.2,5.2,0,0,0,70.8,0Zm1.27,59.44a1.27,1.27,0,0,1-1.27,1.27H60.51A25,25,0,0,0,59.9,38.3a2,2,0,0,0-1.17-.95,1.94,1.94,0,0,0-1.49.16,2,2,0,0,0-.8,2.66,21.07,21.07,0,0,1-3.63,24.74,21,21,0,0,1-29.62,0,21.57,21.57,0,0,1-2.68-3.28l0-.05A20.95,20.95,0,0,1,47.94,31.66a1.93,1.93,0,0,0,1.49.15,2,2,0,0,0,1.17-.95,2,2,0,0,0-.8-2.66,25,25,0,0,0-15.24-2.73A24.87,24.87,0,0,0,15.5,60.71H5.2a1.27,1.27,0,0,1-1.27-1.27V19.36H72.07Zm0-44H3.93V5.2A1.27,1.27,0,0,1,5.2,3.93H70.8A1.27,1.27,0,0,1,72.07,5.2Z"/><path class="cls-1" d="M54.2,35.87a2,2,0,0,0,1.38-.58,2,2,0,0,0,0-2.78h0a1.94,1.94,0,0,0-1.39-.57h0a2,2,0,0,0-1.38,3.35A2,2,0,0,0,54.2,35.87Z"/></g></g></svg>