<svg xmlns="http://www.w3.org/2000/svg" viewBox="0 0 30.72 30.72"><defs><style>.cls-1{fill:#3fd775;}</style></defs><g id="Layer_2" data-name="Layer 2"><g id="Layer_1-2" data-name="Layer 1"><path class="cls-1" d="M15.36,30.72A15.36,15.36,0,1,1,30.72,15.36,15.38,15.38,0,0,1,15.36,30.72Zm0-28.34a13,13,0,1,0,13,13A13,13,0,0,0,15.36,2.38Z"/><path class="cls-1" d="M13.5,21a1.21,1.21,0,0,1-.84-.35L8.27,16.19A1.18,1.18,0,1,1,10,14.53l3.51,3.56,7.26-8a1.19,1.19,0,0,1,1.76,1.6l-8.11,8.92a1.13,1.13,0,0,1-.85.39Z"/></g></g></svg>