<svg xmlns="http://www.w3.org/2000/svg" viewBox="0 0 74 70.88"><defs><style>.cls-1{fill:#27b7e4;}</style></defs><g id="Layer_2" data-name="Layer 2"><g id="Layer_1-2" data-name="Layer 1"><path class="cls-1" d="M74,15.56a2.62,2.62,0,0,0-2.58-3.06h-50a2.62,2.62,0,0,0-2.58,3.06L24.53,50h-4.1l-9-47.86A2.63,2.63,0,0,0,8.88,0H0V5.25H6.7l9,47.86a2.63,2.63,0,0,0,2.58,2.14H28l-.74.83a8.88,8.88,0,1,0,13.21,0l-.74-.83h16.4l-.75.83a8.88,8.88,0,1,0,13.22,0l-.75-.83H74V50H68.22ZM33.88,65.63h0A3.63,3.63,0,1,1,37.5,62,3.64,3.64,0,0,1,33.88,65.63Zm28.12,0h0A3.63,3.63,0,1,1,65.63,62,3.61,3.61,0,0,1,62,65.63ZM62.9,50h-33L24.47,17.75H68.28Z"/></g></g></svg>