<svg xmlns="http://www.w3.org/2000/svg" viewBox="0 0 31.31 33.63"><defs><style>.cls-1{fill:#fff;}</style></defs><g id="Layer_2" data-name="Layer 2"><g id="Layer_1-2" data-name="Layer 1"><path class="cls-1" d="M13.31,5.76A.48.48,0,0,1,13,4.94L15,2.88,13,.82a.48.48,0,0,1,.68-.68L16,2.54a.48.48,0,0,1,0,.68l-2.4,2.39a.53.53,0,0,1-.33.15Z"/><path class="cls-1" d="M15.7,33.63a15.62,15.62,0,1,1,0-31.23.48.48,0,1,1,0,1,14.65,14.65,0,1,0,8.79,2.93.48.48,0,0,1,.58-.77A15.62,15.62,0,0,1,15.7,33.63Z"/><path class="cls-1" d="M15.7,27.94A9.93,9.93,0,1,1,25.62,18a9.93,9.93,0,0,1-9.92,9.93Zm0-18.89a9,9,0,1,0,9,9,9,9,0,0,0-9-9Z"/><path class="cls-1" d="M15.7,18.49a2.87,2.87,0,1,1,2.88-2.87.48.48,0,1,1-1,0,1.92,1.92,0,1,0-1.92,1.91.48.48,0,1,1,0,1Z"/><path class="cls-1" d="M15.7,23.29a2.89,2.89,0,0,1-2.88-2.88.49.49,0,0,1,1,0,1.91,1.91,0,1,0,1.91-1.92.48.48,0,0,1,0-1,2.88,2.88,0,0,1,0,5.76Z"/><path class="cls-1" d="M15.7,24.34a.49.49,0,0,1-.48-.48V12.17a.48.48,0,1,1,1,0V23.86a.48.48,0,0,1-.48.48Z"/></g></g></svg>