<svg xmlns="http://www.w3.org/2000/svg" viewBox="0 0 30.01 27.08"><defs><style>.cls-1{fill:#fff;}</style></defs><g id="Layer_2" data-name="Layer 2"><g id="Layer_1-2" data-name="Layer 1"><path class="cls-1" d="M30,15a4.48,4.48,0,0,0-3.92-4.62,2.66,2.66,0,0,0-1.84-1.8A9.48,9.48,0,0,0,15,0,9.48,9.48,0,0,0,5.76,8.53a2.66,2.66,0,0,0-1.84,1.8l-.23,0V4.63a.88.88,0,0,0-1.76,0v6.43A4.75,4.75,0,0,0,0,15a4.47,4.47,0,0,0,3.92,4.61,2.63,2.63,0,0,0,1.83,1.8,4.64,4.64,0,0,0,4.57,3.84h.2a2.77,2.77,0,0,0,2.61,1.88h3.75a2.76,2.76,0,1,0,0-5.51H13.13a2.77,2.77,0,0,0-2.61,1.88h-.2a2.89,2.89,0,0,1-2.78-2.14,2.65,2.65,0,0,0,1.78-2.49V11.08a2.64,2.64,0,0,0-1.79-2.5A7.72,7.72,0,0,1,15,1.76a7.71,7.71,0,0,1,7.47,6.82,2.64,2.64,0,0,0-1.79,2.5v7.74a2.64,2.64,0,0,0,2.64,2.63h.23a2.64,2.64,0,0,0,2.53-1.89A4.47,4.47,0,0,0,30,15Z"/></g></g></svg>