<svg xmlns="http://www.w3.org/2000/svg" xmlns:xlink="http://www.w3.org/1999/xlink" viewBox="0 0 75 75.01"><defs><style>.cls-1{fill:url(#radial-gradient);}</style><radialGradient id="radial-gradient" cx="-33.5" cy="-6.57" r="172.27" gradientUnits="userSpaceOnUse"><stop offset="0.07" stop-color="#00c9bc"/><stop offset="0.31" stop-color="#1b92a4"/><stop offset="0.64" stop-color="#3d4c85"/><stop offset="0.88" stop-color="#532172"/><stop offset="1" stop-color="#5b106b"/></radialGradient></defs><g id="Layer_2" data-name="Layer 2"><g id="Layer_1-2" data-name="Layer 1"><path class="cls-1" d="M68.06,15.78c-.09-.13-.21-.25-.31-.38-.7-1-1.44-1.87-2.22-2.75l-.65-.72c-.8-.86-1.65-1.68-2.53-2.47-.17-.14-.32-.29-.48-.43a37.44,37.44,0,0,0-7.11-4.8l-.32-.16C53.31,3.5,52.15,3,51,2.52c-.27-.1-.51-.19-.77-.27-1-.38-2.12-.71-3.21-1L46,1C44.94.76,43.86.57,42.77.41c-.33,0-.66-.11-1-.15a34.54,34.54,0,0,0-8.5,0c-.33,0-.66.1-1,.15C31.18.57,30.1.76,29,1l-1,.25c-1.09.29-2.17.62-3.21,1l-.77.27c-1.19.46-2.35,1-3.48,1.55l-.32.16A37.27,37.27,0,0,0,13.16,9c-.17.14-.32.29-.48.43a34.92,34.92,0,0,0-2.54,2.47l-.65.72c-.78.88-1.52,1.8-2.22,2.75L7,15.78l0,.07a37.28,37.28,0,0,0,0,43.3l0,.07c.1.14.21.25.31.38Q8.32,61,9.49,62.36c.22.24.43.48.65.71a34.8,34.8,0,0,0,2.54,2.47c.16.15.31.3.48.44a37.13,37.13,0,0,0,7.11,4.8l.31.15a35.85,35.85,0,0,0,3.48,1.55l.77.27c1.06.38,2.13.72,3.22,1,.32.09.64.18,1,.25,1.07.25,2.14.44,3.24.6l1,.15a35.54,35.54,0,0,0,8.5,0l1-.15c1.1-.16,2.18-.35,3.24-.6.33-.07.65-.16,1-.25,1.1-.28,2.17-.62,3.22-1l.77-.27a35.85,35.85,0,0,0,3.48-1.55l.31-.15A37.13,37.13,0,0,0,61.84,66c.17-.14.32-.29.48-.44a33,33,0,0,0,2.54-2.47c.22-.23.43-.47.65-.71Q66.68,61,67.73,59.6c.1-.13.21-.24.31-.38l0-.07a37.28,37.28,0,0,0,0-43.3S68.06,15.81,68.06,15.78Zm-3,38.3a48,48,0,0,0-13-4.44,49.59,49.59,0,0,0,1.5-9.46H69.53A31.92,31.92,0,0,1,65,54.08ZM61.6,58.73c-.63.71-1.28,1.4-2,2.05l-.52.47c-.66.61-1.34,1.18-2,1.72-.18.15-.37.29-.56.42-.73.54-1.48,1-2.25,1.52l-.54.32q-1.22.7-2.49,1.32l-.47.22A29,29,0,0,1,48,67.84c-.14,0-.26.11-.42.16-.93.31-1.87.57-2.84.8-.15,0-.29.09-.45.12-.36.08-.74.12-1.12.18a67.9,67.9,0,0,0,7.22-14.31,45.14,45.14,0,0,1,11.43,3.67ZM30.25,68.8a27.82,27.82,0,0,1-2.84-.8L27,67.84c-.92-.32-1.83-.68-2.72-1.07l-.46-.23c-.85-.4-1.69-.84-2.5-1.31l-.54-.33c-.77-.47-1.52-1-2.25-1.51L18,63a23.92,23.92,0,0,1-2.05-1.72l-.52-.47c-.68-.65-1.34-1.34-2-2.05l-.24-.27A44.94,44.94,0,0,1,24.6,54.79,68.38,68.38,0,0,0,31.82,69.1c-.38-.06-.76-.1-1.12-.18C30.55,68.88,30.4,68.83,30.25,68.8ZM5.5,40.18H21.55a48.81,48.81,0,0,0,1.5,9.46,47.92,47.92,0,0,0-13,4.44A31.79,31.79,0,0,1,5.5,40.18ZM10,20.92a48,48,0,0,0,13,4.45,49.47,49.47,0,0,0-1.49,9.45H5.5A31.83,31.83,0,0,1,10,20.92Zm3.4-4.64c.63-.72,1.29-1.41,2-2.06l.51-.47c.66-.6,1.35-1.17,2.06-1.72l.56-.42c.72-.53,1.48-1,2.25-1.51l.53-.33c.82-.47,1.65-.91,2.5-1.31l.46-.23c.89-.4,1.8-.75,2.72-1.07L27.41,7c.93-.31,1.88-.57,2.84-.81l.45-.11c.37-.08.75-.12,1.12-.19a67.94,67.94,0,0,0-7.21,14.32,45,45,0,0,1-11.43-3.67ZM44.77,6.21a28,28,0,0,1,2.85.8l.42.16c.92.32,1.83.67,2.72,1.07l.46.22c.85.41,1.68.85,2.5,1.32l.53.32c.77.47,1.52,1,2.25,1.52.19.13.38.26.56.41a24.18,24.18,0,0,1,2.06,1.73c.17.15.34.3.51.47.69.65,1.34,1.34,2,2.05l.24.27a45,45,0,0,1-11.43,3.67A67.94,67.94,0,0,0,43.21,5.9c.37.07.75.11,1.12.19C44.48,6.12,44.62,6.17,44.77,6.21Zm-7.26,42a77.74,77.74,0,0,0-9.15.54,44.64,44.64,0,0,1-1.47-8.58H48.14a45.45,45.45,0,0,1-1.48,8.58A77.61,77.61,0,0,0,37.51,48.22ZM45,54a64.62,64.62,0,0,1-7.46,13.93A64.62,64.62,0,0,1,30.05,54,69,69,0,0,1,45,54ZM26.89,34.82a44.43,44.43,0,0,1,1.48-8.57,75.47,75.47,0,0,0,9.14.53,77.91,77.91,0,0,0,9.16-.54,44.51,44.51,0,0,1,1.47,8.58ZM37.51,21.43a74.41,74.41,0,0,1-7.46-.4A65.5,65.5,0,0,1,37.51,7.1,64.66,64.66,0,0,1,45,21,74.45,74.45,0,0,1,37.51,21.43Zm16,13.39A50.29,50.29,0,0,0,52,25.37a48.17,48.17,0,0,0,13-4.45,32,32,0,0,1,4.52,13.9Z"/></g></g></svg>